<?xml version="1.0" encoding="UTF-8"?>
<svg id="_レイヤー_1" data-name="レイヤー 1" xmlns="http://www.w3.org/2000/svg" width="408.74" height="410.12" viewBox="0 0 408.74 410.12">
  <path d="M354.81,169.37l-136.97,79.99c-3.78,2.19-8.45,2.19-12.23,0l-124.57-72.58v29.67h0s0,105.71,0,105.71c-8.3-4.02-15-5.25-25.21-5.25-29.99,0-55.83,19.47-55.83,42.04,0,17.93,14.99,30.29,36.05,30.29s45.62-13.91,54.88-32.15c3.83-7.73,4.78-12.67,4.78-27.51v-79.91l112.84,65.74c3.79,2.18,8.45,2.18,12.24,0l119.35-69.72v107.35c-8.3-4.02-15-5.25-25.21-5.25-29.99,0-55.83,19.47-55.83,42.04,0,17.93,14.99,30.29,36.05,30.29s45.62-13.91,54.88-32.15c3.83-7.73,4.78-12.67,4.78-27.51v-124.23h0s0-56.86,0-56.86Z" fill="#231815"/>
  <polygon points="259.74 96.03 259.74 187.54 259.74 213.83 389.3 139.03 287.27 80.13 259.74 96.03" fill="#231815"/>
  <polygon points="185.02 51.91 238.4 51.91 211.73 36.51 185.02 51.91" fill="#231815"/>
  <polygon points="81.59 111.54 252.63 111.54 252.63 91.92 252.63 69.18 252.63 60.13 170.77 60.13 170.77 60.13 81.59 111.54" fill="#231815"/>
  <path d="M400.47,103.95L227.95,4.35c-10.04-5.8-22.41-5.8-32.45,0L22.98,103.95c-11.02,6.36-11.02,22.27,0,28.63l8.46,4.88,169.89,98.09c6.43,3.71,14.36,3.71,20.79,0l22.67-13.09L67.22,119.94l-7-4.04v-.13l-.1-.06.1-.06,7.12-4.1L211.73,28.29l184.69,106.63,4.06-2.34c11.02-6.36,11.02-22.27,0-28.63Z" fill="#231815"/>
  <polygon points="251.91 218.35 252.62 217.94 252.62 187.54 252.62 119.76 81.15 119.76 251.91 218.35" fill="#231815"/>
  <polygon points="259.74 69.17 259.74 87.81 280.16 76.02 259.74 64.24 259.74 69.17" fill="#231815"/>
</svg>